<svg xmlns="http://www.w3.org/2000/svg" xmlns:xlink="http://www.w3.org/1999/xlink" width="500" zoomAndPan="magnify" viewBox="0 0 375 374.999991" height="500" preserveAspectRatio="xMidYMid meet" version="1.0"><defs><g/></defs><g fill="#0f353f" fill-opacity="0.949"><g transform="translate(19.910363, 224.902682)"><g><path d="M 23.46875 0.90625 C 20.601562 0.90625 17.488281 0.503906 14.125 -0.296875 C 10.769531 -1.097656 7.890625 -2.164062 5.484375 -3.5 L 5 -18.265625 L 11.390625 -18.671875 L 14.78125 -8.390625 C 16.175781 -7.523438 17.769531 -6.84375 19.5625 -6.34375 C 21.363281 -5.84375 23.097656 -5.59375 24.765625 -5.59375 C 27.753906 -5.59375 30.03125 -6.222656 31.59375 -7.484375 C 33.164062 -8.753906 33.953125 -10.453125 33.953125 -12.578125 C 33.953125 -14.910156 33.269531 -16.773438 31.90625 -18.171875 C 30.539062 -19.566406 28.757812 -20.765625 26.5625 -21.765625 C 24.363281 -22.765625 22.03125 -23.742188 19.5625 -24.703125 C 17.101562 -25.671875 14.773438 -26.835938 12.578125 -28.203125 C 10.378906 -29.566406 8.597656 -31.3125 7.234375 -33.4375 C 5.867188 -35.570312 5.1875 -38.335938 5.1875 -41.734375 C 5.1875 -45.328125 6.203125 -48.472656 8.234375 -51.171875 C 10.265625 -53.867188 13.128906 -55.96875 16.828125 -57.46875 C 20.523438 -58.96875 24.800781 -59.71875 29.65625 -59.71875 C 31.1875 -59.71875 32.847656 -59.613281 34.640625 -59.40625 C 36.441406 -59.207031 38.175781 -58.890625 39.84375 -58.453125 C 41.507812 -58.023438 42.941406 -57.546875 44.140625 -57.015625 L 45.328125 -42.4375 L 38.9375 -42.03125 L 35.75 -51.828125 C 33.6875 -52.890625 31.320312 -53.421875 28.65625 -53.421875 C 25.925781 -53.421875 23.675781 -52.738281 21.90625 -51.375 C 20.144531 -50.007812 19.265625 -48.097656 19.265625 -45.640625 C 19.265625 -43.441406 19.960938 -41.625 21.359375 -40.1875 C 22.765625 -38.757812 24.582031 -37.53125 26.8125 -36.5 C 29.039062 -35.46875 31.398438 -34.453125 33.890625 -33.453125 C 36.390625 -32.453125 38.738281 -31.269531 40.9375 -29.90625 C 43.132812 -28.539062 44.929688 -26.828125 46.328125 -24.765625 C 47.722656 -22.703125 48.421875 -20.070312 48.421875 -16.875 C 48.421875 -13.476562 47.390625 -10.429688 45.328125 -7.734375 C 43.265625 -5.035156 40.351562 -2.921875 36.59375 -1.390625 C 32.832031 0.140625 28.457031 0.90625 23.46875 0.90625 Z M 23.46875 0.90625 "/></g></g></g><g fill="#0f353f" fill-opacity="0.949"><g transform="translate(67.554231, 224.902682)"><g><path d="M 1.59375 21.96875 L 1.296875 17.375 L 7.484375 15.671875 C 7.484375 15.273438 7.515625 14.441406 7.578125 13.171875 C 7.648438 11.910156 7.71875 10.378906 7.78125 8.578125 C 7.851562 6.785156 7.921875 4.789062 7.984375 2.59375 C 8.054688 0.394531 8.09375 -1.800781 8.09375 -4 L 8.28125 -23.859375 C 8.28125 -25.796875 8.210938 -27.546875 8.078125 -29.109375 C 7.953125 -30.671875 7.722656 -32.316406 7.390625 -34.046875 L 1 -35.453125 L 1 -39.9375 L 18.578125 -44.4375 L 21.375 -42.734375 L 20.5625 -36.640625 L 20.875 -36.546875 C 22.46875 -39.003906 24.460938 -40.96875 26.859375 -42.4375 C 29.253906 -43.90625 31.785156 -44.640625 34.453125 -44.640625 C 37.648438 -44.640625 40.628906 -43.820312 43.390625 -42.1875 C 46.148438 -40.550781 48.394531 -38.1875 50.125 -35.09375 C 51.851562 -32 52.71875 -28.222656 52.71875 -23.765625 C 52.71875 -19.441406 51.71875 -15.414062 49.71875 -11.6875 C 47.726562 -7.957031 44.882812 -4.957031 41.1875 -2.6875 C 37.488281 -0.425781 33.144531 0.703125 28.15625 0.703125 C 27.03125 0.703125 25.847656 0.597656 24.609375 0.390625 C 23.378906 0.191406 22.195312 -0.101562 21.0625 -0.5 L 21.0625 5.796875 C 21.0625 7.992188 21.113281 10.054688 21.21875 11.984375 C 21.320312 13.910156 21.40625 15.140625 21.46875 15.671875 L 29.65625 17.28125 L 29.359375 21.96875 Z M 28.265625 -6.390625 C 30.328125 -6.390625 32.140625 -6.867188 33.703125 -7.828125 C 35.265625 -8.796875 36.507812 -10.34375 37.4375 -12.46875 C 38.375 -14.601562 38.8125 -17.335938 38.75 -20.671875 C 38.8125 -24.128906 38.34375 -26.90625 37.34375 -29 C 36.34375 -31.101562 35.078125 -32.65625 33.546875 -33.65625 C 32.015625 -34.65625 30.351562 -35.15625 28.5625 -35.15625 C 27.164062 -35.15625 25.816406 -34.800781 24.515625 -34.09375 C 23.210938 -33.394531 22.0625 -32.445312 21.0625 -31.25 L 21.0625 -8.484375 C 22.0625 -7.890625 23.191406 -7.390625 24.453125 -6.984375 C 25.722656 -6.585938 26.992188 -6.390625 28.265625 -6.390625 Z M 28.265625 -6.390625 "/></g></g></g><g fill="#0f353f" fill-opacity="0.949"><g transform="translate(120.290433, 224.902682)"><g><path d="M 26.953125 0.796875 C 22.296875 0.796875 18.203125 -0.148438 14.671875 -2.046875 C 11.148438 -3.941406 8.390625 -6.570312 6.390625 -9.9375 C 4.390625 -13.300781 3.390625 -17.144531 3.390625 -21.46875 C 3.390625 -26.394531 4.519531 -30.585938 6.78125 -34.046875 C 9.050781 -37.515625 12.015625 -40.144531 15.671875 -41.9375 C 19.335938 -43.738281 23.234375 -44.640625 27.359375 -44.640625 C 31.816406 -44.640625 35.726562 -43.707031 39.09375 -41.84375 C 42.457031 -39.976562 45.085938 -37.363281 46.984375 -34 C 48.878906 -30.632812 49.828125 -26.789062 49.828125 -22.46875 C 49.828125 -18.070312 48.796875 -14.125 46.734375 -10.625 C 44.671875 -7.132812 41.921875 -4.359375 38.484375 -2.296875 C 35.054688 -0.234375 31.210938 0.796875 26.953125 0.796875 Z M 27.953125 -5.59375 C 29.617188 -5.59375 31.035156 -6.125 32.203125 -7.1875 C 33.367188 -8.25 34.265625 -9.8125 34.890625 -11.875 C 35.523438 -13.945312 35.84375 -16.410156 35.84375 -19.265625 C 35.84375 -24.992188 34.925781 -29.65625 33.09375 -33.25 C 31.269531 -36.84375 28.828125 -38.640625 25.765625 -38.640625 C 23.296875 -38.640625 21.3125 -37.359375 19.8125 -34.796875 C 18.320312 -32.234375 17.578125 -28.753906 17.578125 -24.359375 C 17.578125 -20.835938 18.023438 -17.644531 18.921875 -14.78125 C 19.816406 -11.914062 21.046875 -9.664062 22.609375 -8.03125 C 24.179688 -6.40625 25.960938 -5.59375 27.953125 -5.59375 Z M 27.953125 -5.59375 "/></g></g></g><g fill="#0f353f" fill-opacity="0.949"><g transform="translate(169.931295, 224.902682)"><g><path d="M 26.953125 0.796875 C 22.296875 0.796875 18.203125 -0.148438 14.671875 -2.046875 C 11.148438 -3.941406 8.390625 -6.570312 6.390625 -9.9375 C 4.390625 -13.300781 3.390625 -17.144531 3.390625 -21.46875 C 3.390625 -26.394531 4.519531 -30.585938 6.78125 -34.046875 C 9.050781 -37.515625 12.015625 -40.144531 15.671875 -41.9375 C 19.335938 -43.738281 23.234375 -44.640625 27.359375 -44.640625 C 31.816406 -44.640625 35.726562 -43.707031 39.09375 -41.84375 C 42.457031 -39.976562 45.085938 -37.363281 46.984375 -34 C 48.878906 -30.632812 49.828125 -26.789062 49.828125 -22.46875 C 49.828125 -18.070312 48.796875 -14.125 46.734375 -10.625 C 44.671875 -7.132812 41.921875 -4.359375 38.484375 -2.296875 C 35.054688 -0.234375 31.210938 0.796875 26.953125 0.796875 Z M 27.953125 -5.59375 C 29.617188 -5.59375 31.035156 -6.125 32.203125 -7.1875 C 33.367188 -8.25 34.265625 -9.8125 34.890625 -11.875 C 35.523438 -13.945312 35.84375 -16.410156 35.84375 -19.265625 C 35.84375 -24.992188 34.925781 -29.65625 33.09375 -33.25 C 31.269531 -36.84375 28.828125 -38.640625 25.765625 -38.640625 C 23.296875 -38.640625 21.3125 -37.359375 19.8125 -34.796875 C 18.320312 -32.234375 17.578125 -28.753906 17.578125 -24.359375 C 17.578125 -20.835938 18.023438 -17.644531 18.921875 -14.78125 C 19.816406 -11.914062 21.046875 -9.664062 22.609375 -8.03125 C 24.179688 -6.40625 25.960938 -5.59375 27.953125 -5.59375 Z M 27.953125 -5.59375 "/></g></g></g><g fill="#0f353f" fill-opacity="0.949"><g transform="translate(219.572169, 224.902682)"><g><path d="M 1.890625 0 L 1.59375 -4.59375 L 7.78125 -6.296875 C 7.851562 -6.554688 7.921875 -7.148438 7.984375 -8.078125 C 8.054688 -9.015625 8.125 -10.195312 8.1875 -11.625 C 8.25 -13.0625 8.28125 -14.613281 8.28125 -16.28125 L 8.390625 -23.859375 C 8.390625 -25.921875 8.320312 -27.703125 8.1875 -29.203125 C 8.050781 -30.703125 7.816406 -32.316406 7.484375 -34.046875 L 1.09375 -35.453125 L 1.09375 -39.9375 L 18.671875 -44.4375 L 21.46875 -42.734375 L 20.875 -36.84375 L 21.171875 -36.75 C 23.234375 -39.40625 25.507812 -41.382812 28 -42.6875 C 30.5 -43.988281 33.113281 -44.640625 35.84375 -44.640625 C 38.707031 -44.640625 41.269531 -43.9375 43.53125 -42.53125 C 45.800781 -41.132812 47.582031 -39.085938 48.875 -36.390625 C 50.175781 -33.703125 50.828125 -30.457031 50.828125 -26.65625 L 50.828125 -16.375 C 50.828125 -14.113281 50.859375 -12 50.921875 -10.03125 C 50.992188 -8.070312 51.128906 -6.828125 51.328125 -6.296875 L 57.515625 -4.59375 L 57.21875 0 L 32.15625 0 L 31.859375 -4.59375 L 37.546875 -6.296875 C 37.679688 -6.960938 37.78125 -7.828125 37.84375 -8.890625 C 37.90625 -9.953125 37.953125 -11.148438 37.984375 -12.484375 C 38.023438 -13.816406 38.046875 -15.082031 38.046875 -16.28125 L 38.046875 -24.65625 C 38.046875 -27.1875 37.660156 -29.234375 36.890625 -30.796875 C 36.128906 -32.367188 35.128906 -33.519531 33.890625 -34.25 C 32.660156 -34.976562 31.28125 -35.34375 29.75 -35.34375 C 28.09375 -35.34375 26.53125 -34.976562 25.0625 -34.25 C 23.59375 -33.519531 22.296875 -32.453125 21.171875 -31.046875 L 21.171875 -16.375 C 21.171875 -14.113281 21.21875 -12 21.3125 -10.03125 C 21.414062 -8.070312 21.566406 -6.828125 21.765625 -6.296875 L 27.765625 -4.59375 L 27.453125 0 Z M 1.890625 0 "/></g></g></g><g fill="#0f353f" fill-opacity="0.949"><g transform="translate(274.704764, 224.902682)"><g><path d="M 1.59375 0 L 1.296875 -4.6875 L 7.78125 -6.296875 C 7.851562 -7.023438 7.9375 -8.300781 8.03125 -10.125 C 8.132812 -11.957031 8.21875 -14.070312 8.28125 -16.46875 C 8.351562 -18.875 8.390625 -21.207031 8.390625 -23.46875 L 8.390625 -36.046875 C 8.390625 -38.378906 8.367188 -40.675781 8.328125 -42.9375 C 8.296875 -45.195312 8.265625 -47.375 8.234375 -49.46875 C 8.203125 -51.570312 8.148438 -53.472656 8.078125 -55.171875 C 8.015625 -56.867188 7.914062 -58.28125 7.78125 -59.40625 L 0.40625 -60.40625 L 0.203125 -64.703125 L 19.265625 -69.59375 L 22.0625 -67.90625 C 21.9375 -65.101562 21.835938 -62.382812 21.765625 -59.75 C 21.703125 -57.125 21.648438 -54.144531 21.609375 -50.8125 C 21.578125 -47.488281 21.5625 -43.429688 21.5625 -38.640625 L 21.46875 -23.96875 C 21.46875 -19.300781 21.5 -15.351562 21.5625 -12.125 C 21.632812 -8.90625 21.738281 -6.960938 21.875 -6.296875 L 28.359375 -4.6875 L 28.15625 0 Z M 1.59375 0 "/></g></g></g><g fill="#0f353f" fill-opacity="0.949"><g transform="translate(300.880925, 224.902682)"><g><path d="M 22.375 0.40625 L 4.09375 -37.640625 L -0.59375 -39.25 L -0.296875 -43.828125 L 25.15625 -43.828125 L 25.46875 -39.25 L 19.265625 -37.640625 L 30.453125 -13.28125 Z M 50.328125 -43.828125 L 50.625 -39.25 L 45.9375 -37.640625 L 28.453125 -3.203125 L 20.5625 13.375 C 18.832031 17.039062 17.035156 19.519531 15.171875 20.8125 C 13.304688 22.113281 11.3125 22.765625 9.1875 22.765625 C 6.925781 22.765625 5.144531 22.210938 3.84375 21.109375 C 2.539062 20.015625 1.890625 18.671875 1.890625 17.078125 C 1.890625 15.609375 2.472656 14.257812 3.640625 13.03125 C 4.804688 11.800781 6.585938 10.851562 8.984375 10.1875 L 20.765625 6.984375 L 14.078125 11.578125 L 26.15625 -10.890625 L 27.453125 -13.28125 L 38.140625 -37.640625 L 31.953125 -39.25 L 32.25 -43.828125 Z M 50.328125 -43.828125 "/></g></g></g><g fill="#95b2ad" fill-opacity="1"><g transform="translate(22.147256, 221.028266)"><g><path d="M 23.46875 0.90625 C 20.601562 0.90625 17.488281 0.503906 14.125 -0.296875 C 10.769531 -1.097656 7.890625 -2.164062 5.484375 -3.5 L 5 -18.265625 L 11.390625 -18.671875 L 14.78125 -8.390625 C 16.175781 -7.523438 17.769531 -6.84375 19.5625 -6.34375 C 21.363281 -5.84375 23.097656 -5.59375 24.765625 -5.59375 C 27.753906 -5.59375 30.03125 -6.222656 31.59375 -7.484375 C 33.164062 -8.753906 33.953125 -10.453125 33.953125 -12.578125 C 33.953125 -14.910156 33.269531 -16.773438 31.90625 -18.171875 C 30.539062 -19.566406 28.757812 -20.765625 26.5625 -21.765625 C 24.363281 -22.765625 22.03125 -23.742188 19.5625 -24.703125 C 17.101562 -25.671875 14.773438 -26.835938 12.578125 -28.203125 C 10.378906 -29.566406 8.597656 -31.3125 7.234375 -33.4375 C 5.867188 -35.570312 5.1875 -38.335938 5.1875 -41.734375 C 5.1875 -45.328125 6.203125 -48.472656 8.234375 -51.171875 C 10.265625 -53.867188 13.128906 -55.96875 16.828125 -57.46875 C 20.523438 -58.96875 24.800781 -59.71875 29.65625 -59.71875 C 31.1875 -59.71875 32.847656 -59.613281 34.640625 -59.40625 C 36.441406 -59.207031 38.175781 -58.890625 39.84375 -58.453125 C 41.507812 -58.023438 42.941406 -57.546875 44.140625 -57.015625 L 45.328125 -42.4375 L 38.9375 -42.03125 L 35.75 -51.828125 C 33.6875 -52.890625 31.320312 -53.421875 28.65625 -53.421875 C 25.925781 -53.421875 23.675781 -52.738281 21.90625 -51.375 C 20.144531 -50.007812 19.265625 -48.097656 19.265625 -45.640625 C 19.265625 -43.441406 19.960938 -41.625 21.359375 -40.1875 C 22.765625 -38.757812 24.582031 -37.53125 26.8125 -36.5 C 29.039062 -35.46875 31.398438 -34.453125 33.890625 -33.453125 C 36.390625 -32.453125 38.738281 -31.269531 40.9375 -29.90625 C 43.132812 -28.539062 44.929688 -26.828125 46.328125 -24.765625 C 47.722656 -22.703125 48.421875 -20.070312 48.421875 -16.875 C 48.421875 -13.476562 47.390625 -10.429688 45.328125 -7.734375 C 43.265625 -5.035156 40.351562 -2.921875 36.59375 -1.390625 C 32.832031 0.140625 28.457031 0.90625 23.46875 0.90625 Z M 23.46875 0.90625 "/></g></g></g><g fill="#95b2ad" fill-opacity="1"><g transform="translate(69.791124, 221.028266)"><g><path d="M 1.59375 21.96875 L 1.296875 17.375 L 7.484375 15.671875 C 7.484375 15.273438 7.515625 14.441406 7.578125 13.171875 C 7.648438 11.910156 7.71875 10.378906 7.78125 8.578125 C 7.851562 6.785156 7.921875 4.789062 7.984375 2.59375 C 8.054688 0.394531 8.09375 -1.800781 8.09375 -4 L 8.28125 -23.859375 C 8.28125 -25.796875 8.210938 -27.546875 8.078125 -29.109375 C 7.953125 -30.671875 7.722656 -32.316406 7.390625 -34.046875 L 1 -35.453125 L 1 -39.9375 L 18.578125 -44.4375 L 21.375 -42.734375 L 20.5625 -36.640625 L 20.875 -36.546875 C 22.46875 -39.003906 24.460938 -40.96875 26.859375 -42.4375 C 29.253906 -43.90625 31.785156 -44.640625 34.453125 -44.640625 C 37.648438 -44.640625 40.628906 -43.820312 43.390625 -42.1875 C 46.148438 -40.550781 48.394531 -38.1875 50.125 -35.09375 C 51.851562 -32 52.71875 -28.222656 52.71875 -23.765625 C 52.71875 -19.441406 51.71875 -15.414062 49.71875 -11.6875 C 47.726562 -7.957031 44.882812 -4.957031 41.1875 -2.6875 C 37.488281 -0.425781 33.144531 0.703125 28.15625 0.703125 C 27.03125 0.703125 25.847656 0.597656 24.609375 0.390625 C 23.378906 0.191406 22.195312 -0.101562 21.0625 -0.5 L 21.0625 5.796875 C 21.0625 7.992188 21.113281 10.054688 21.21875 11.984375 C 21.320312 13.910156 21.40625 15.140625 21.46875 15.671875 L 29.65625 17.28125 L 29.359375 21.96875 Z M 28.265625 -6.390625 C 30.328125 -6.390625 32.140625 -6.867188 33.703125 -7.828125 C 35.265625 -8.796875 36.507812 -10.34375 37.4375 -12.46875 C 38.375 -14.601562 38.8125 -17.335938 38.75 -20.671875 C 38.8125 -24.128906 38.34375 -26.90625 37.34375 -29 C 36.34375 -31.101562 35.078125 -32.65625 33.546875 -33.65625 C 32.015625 -34.65625 30.351562 -35.15625 28.5625 -35.15625 C 27.164062 -35.15625 25.816406 -34.800781 24.515625 -34.09375 C 23.210938 -33.394531 22.0625 -32.445312 21.0625 -31.25 L 21.0625 -8.484375 C 22.0625 -7.890625 23.191406 -7.390625 24.453125 -6.984375 C 25.722656 -6.585938 26.992188 -6.390625 28.265625 -6.390625 Z M 28.265625 -6.390625 "/></g></g></g><g fill="#95b2ad" fill-opacity="1"><g transform="translate(122.527327, 221.028266)"><g><path d="M 26.953125 0.796875 C 22.296875 0.796875 18.203125 -0.148438 14.671875 -2.046875 C 11.148438 -3.941406 8.390625 -6.570312 6.390625 -9.9375 C 4.390625 -13.300781 3.390625 -17.144531 3.390625 -21.46875 C 3.390625 -26.394531 4.519531 -30.585938 6.78125 -34.046875 C 9.050781 -37.515625 12.015625 -40.144531 15.671875 -41.9375 C 19.335938 -43.738281 23.234375 -44.640625 27.359375 -44.640625 C 31.816406 -44.640625 35.726562 -43.707031 39.09375 -41.84375 C 42.457031 -39.976562 45.085938 -37.363281 46.984375 -34 C 48.878906 -30.632812 49.828125 -26.789062 49.828125 -22.46875 C 49.828125 -18.070312 48.796875 -14.125 46.734375 -10.625 C 44.671875 -7.132812 41.921875 -4.359375 38.484375 -2.296875 C 35.054688 -0.234375 31.210938 0.796875 26.953125 0.796875 Z M 27.953125 -5.59375 C 29.617188 -5.59375 31.035156 -6.125 32.203125 -7.1875 C 33.367188 -8.25 34.265625 -9.8125 34.890625 -11.875 C 35.523438 -13.945312 35.84375 -16.410156 35.84375 -19.265625 C 35.84375 -24.992188 34.925781 -29.65625 33.09375 -33.25 C 31.269531 -36.84375 28.828125 -38.640625 25.765625 -38.640625 C 23.296875 -38.640625 21.3125 -37.359375 19.8125 -34.796875 C 18.320312 -32.234375 17.578125 -28.753906 17.578125 -24.359375 C 17.578125 -20.835938 18.023438 -17.644531 18.921875 -14.78125 C 19.816406 -11.914062 21.046875 -9.664062 22.609375 -8.03125 C 24.179688 -6.40625 25.960938 -5.59375 27.953125 -5.59375 Z M 27.953125 -5.59375 "/></g></g></g><g fill="#95b2ad" fill-opacity="1"><g transform="translate(172.168188, 221.028266)"><g><path d="M 26.953125 0.796875 C 22.296875 0.796875 18.203125 -0.148438 14.671875 -2.046875 C 11.148438 -3.941406 8.390625 -6.570312 6.390625 -9.9375 C 4.390625 -13.300781 3.390625 -17.144531 3.390625 -21.46875 C 3.390625 -26.394531 4.519531 -30.585938 6.78125 -34.046875 C 9.050781 -37.515625 12.015625 -40.144531 15.671875 -41.9375 C 19.335938 -43.738281 23.234375 -44.640625 27.359375 -44.640625 C 31.816406 -44.640625 35.726562 -43.707031 39.09375 -41.84375 C 42.457031 -39.976562 45.085938 -37.363281 46.984375 -34 C 48.878906 -30.632812 49.828125 -26.789062 49.828125 -22.46875 C 49.828125 -18.070312 48.796875 -14.125 46.734375 -10.625 C 44.671875 -7.132812 41.921875 -4.359375 38.484375 -2.296875 C 35.054688 -0.234375 31.210938 0.796875 26.953125 0.796875 Z M 27.953125 -5.59375 C 29.617188 -5.59375 31.035156 -6.125 32.203125 -7.1875 C 33.367188 -8.25 34.265625 -9.8125 34.890625 -11.875 C 35.523438 -13.945312 35.84375 -16.410156 35.84375 -19.265625 C 35.84375 -24.992188 34.925781 -29.65625 33.09375 -33.25 C 31.269531 -36.84375 28.828125 -38.640625 25.765625 -38.640625 C 23.296875 -38.640625 21.3125 -37.359375 19.8125 -34.796875 C 18.320312 -32.234375 17.578125 -28.753906 17.578125 -24.359375 C 17.578125 -20.835938 18.023438 -17.644531 18.921875 -14.78125 C 19.816406 -11.914062 21.046875 -9.664062 22.609375 -8.03125 C 24.179688 -6.40625 25.960938 -5.59375 27.953125 -5.59375 Z M 27.953125 -5.59375 "/></g></g></g><g fill="#95b2ad" fill-opacity="1"><g transform="translate(221.809062, 221.028266)"><g><path d="M 1.890625 0 L 1.59375 -4.59375 L 7.78125 -6.296875 C 7.851562 -6.554688 7.921875 -7.148438 7.984375 -8.078125 C 8.054688 -9.015625 8.125 -10.195312 8.1875 -11.625 C 8.25 -13.0625 8.28125 -14.613281 8.28125 -16.28125 L 8.390625 -23.859375 C 8.390625 -25.921875 8.320312 -27.703125 8.1875 -29.203125 C 8.050781 -30.703125 7.816406 -32.316406 7.484375 -34.046875 L 1.09375 -35.453125 L 1.09375 -39.9375 L 18.671875 -44.4375 L 21.46875 -42.734375 L 20.875 -36.84375 L 21.171875 -36.75 C 23.234375 -39.40625 25.507812 -41.382812 28 -42.6875 C 30.5 -43.988281 33.113281 -44.640625 35.84375 -44.640625 C 38.707031 -44.640625 41.269531 -43.9375 43.53125 -42.53125 C 45.800781 -41.132812 47.582031 -39.085938 48.875 -36.390625 C 50.175781 -33.703125 50.828125 -30.457031 50.828125 -26.65625 L 50.828125 -16.375 C 50.828125 -14.113281 50.859375 -12 50.921875 -10.03125 C 50.992188 -8.070312 51.128906 -6.828125 51.328125 -6.296875 L 57.515625 -4.59375 L 57.21875 0 L 32.15625 0 L 31.859375 -4.59375 L 37.546875 -6.296875 C 37.679688 -6.960938 37.78125 -7.828125 37.84375 -8.890625 C 37.90625 -9.953125 37.953125 -11.148438 37.984375 -12.484375 C 38.023438 -13.816406 38.046875 -15.082031 38.046875 -16.28125 L 38.046875 -24.65625 C 38.046875 -27.1875 37.660156 -29.234375 36.890625 -30.796875 C 36.128906 -32.367188 35.128906 -33.519531 33.890625 -34.25 C 32.660156 -34.976562 31.28125 -35.34375 29.75 -35.34375 C 28.09375 -35.34375 26.53125 -34.976562 25.0625 -34.25 C 23.59375 -33.519531 22.296875 -32.453125 21.171875 -31.046875 L 21.171875 -16.375 C 21.171875 -14.113281 21.21875 -12 21.3125 -10.03125 C 21.414062 -8.070312 21.566406 -6.828125 21.765625 -6.296875 L 27.765625 -4.59375 L 27.453125 0 Z M 1.890625 0 "/></g></g></g><g fill="#95b2ad" fill-opacity="1"><g transform="translate(276.941657, 221.028266)"><g><path d="M 1.59375 0 L 1.296875 -4.6875 L 7.78125 -6.296875 C 7.851562 -7.023438 7.9375 -8.300781 8.03125 -10.125 C 8.132812 -11.957031 8.21875 -14.070312 8.28125 -16.46875 C 8.351562 -18.875 8.390625 -21.207031 8.390625 -23.46875 L 8.390625 -36.046875 C 8.390625 -38.378906 8.367188 -40.675781 8.328125 -42.9375 C 8.296875 -45.195312 8.265625 -47.375 8.234375 -49.46875 C 8.203125 -51.570312 8.148438 -53.472656 8.078125 -55.171875 C 8.015625 -56.867188 7.914062 -58.28125 7.78125 -59.40625 L 0.40625 -60.40625 L 0.203125 -64.703125 L 19.265625 -69.59375 L 22.0625 -67.90625 C 21.9375 -65.101562 21.835938 -62.382812 21.765625 -59.75 C 21.703125 -57.125 21.648438 -54.144531 21.609375 -50.8125 C 21.578125 -47.488281 21.5625 -43.429688 21.5625 -38.640625 L 21.46875 -23.96875 C 21.46875 -19.300781 21.5 -15.351562 21.5625 -12.125 C 21.632812 -8.90625 21.738281 -6.960938 21.875 -6.296875 L 28.359375 -4.6875 L 28.15625 0 Z M 1.59375 0 "/></g></g></g><g fill="#95b2ad" fill-opacity="1"><g transform="translate(303.117818, 221.028266)"><g><path d="M 22.375 0.40625 L 4.09375 -37.640625 L -0.59375 -39.25 L -0.296875 -43.828125 L 25.15625 -43.828125 L 25.46875 -39.25 L 19.265625 -37.640625 L 30.453125 -13.28125 Z M 50.328125 -43.828125 L 50.625 -39.25 L 45.9375 -37.640625 L 28.453125 -3.203125 L 20.5625 13.375 C 18.832031 17.039062 17.035156 19.519531 15.171875 20.8125 C 13.304688 22.113281 11.3125 22.765625 9.1875 22.765625 C 6.925781 22.765625 5.144531 22.210938 3.84375 21.109375 C 2.539062 20.015625 1.890625 18.671875 1.890625 17.078125 C 1.890625 15.609375 2.472656 14.257812 3.640625 13.03125 C 4.804688 11.800781 6.585938 10.851562 8.984375 10.1875 L 20.765625 6.984375 L 14.078125 11.578125 L 26.15625 -10.890625 L 27.453125 -13.28125 L 38.140625 -37.640625 L 31.953125 -39.25 L 32.25 -43.828125 Z M 50.328125 -43.828125 "/></g></g></g></svg>